<svg width="124" height="133" xmlns="http://www.w3.org/2000/svg" xmlns:xlink="http://www.w3.org/1999/xlink" overflow="hidden"><defs><clipPath id="clip0"><rect x="517" y="131" width="124" height="133"/></clipPath></defs><g clip-path="url(#clip0)" transform="translate(-517 -131)"><path d="M518.5 198C518.5 161.825 545.811 132.5 579.5 132.5 613.189 132.5 640.5 161.825 640.5 198 640.5 234.175 613.189 263.5 579.5 263.5 545.811 263.5 518.5 234.175 518.5 198Z" stroke="#00B0F0" stroke-width="1.33333" stroke-miterlimit="8" fill="none" fill-rule="evenodd"/><path d="M533.5 198.5C533.5 171.438 554.095 149.5 579.5 149.5 604.905 149.5 625.5 171.438 625.5 198.5 625.5 225.562 604.905 247.5 579.5 247.5 554.095 247.5 533.5 225.562 533.5 198.5Z" stroke="#00B0F0" stroke-width="1.33333" stroke-miterlimit="8" stroke-dasharray="10.6667 4" fill="none" fill-rule="evenodd"/><text fill="#00B0F0" font-family="Arial Narrow,Arial Narrow_MSFontService,sans-serif" font-weight="400" font-stretch="condensed" font-size="48" transform="translate(557.076 216)">10</text></g></svg>